<?xml version="1.0" encoding="utf-8"?>
<!-- Generator: Adobe Illustrator 25.0.0, SVG Export Plug-In . SVG Version: 6.00 Build 0)  -->
<svg version="1.1" id="Layer_1" xmlns="http://www.w3.org/2000/svg" xmlns:xlink="http://www.w3.org/1999/xlink" x="0px" y="0px"
	 viewBox="0 0 100 100" style="enable-background:new 0 0 100 100;" xml:space="preserve">
<style type="text/css">
	.st0{fill:#FB4A32;}
	.st1{fill:#E13E2D;}
	.st2{fill:#4B9A43;}
	.st3{fill:#3F8341;}
	.st4{fill:#FE6252;}
</style>
<g>
	<g>
		<path class="st0" d="M39,96.1c-0.3-0.2-0.7-0.3-1-0.5c-1-0.6-1.2-1.5-0.6-2.3c0.9-1,2.1-1.8,3.3-2.5c4.7-3.1,9.4-6.3,13.5-10.1
			c6-5.6,10.8-12,13.3-20.1c1.6-5.4,1.8-11.1,1.2-17.1c-0.7-7,1.3-12.9,6.8-16.8c0.5-0.3,1.1-0.2,1.6,0c3.1,2.4,5.2,5.5,6.8,8.9
			c1.3,2.9,1.6,5.7,2.2,8.6c1,5.1-0.1,9.6-1.4,14.1C83.3,63.8,81,69,78,73.7c-3.3,5.2-7.3,9.7-12.5,13.2c-2.3,1.5-4.4,3.2-6.9,4.4
			c-3.3,1.7-6.9,2.9-10.7,3.7c-2.5,0.5-5,0.7-7.5,1.1C39.9,96.2,39.5,96,39,96.1z"/>
		<path class="st1" d="M39,96.1c1.4-0.2,2.9-0.4,4.3-0.5c5.9-0.6,11.3-2.3,16.2-4.9c2.1-1.1,3.9-2.5,5.7-3.8c2.5-1.8,4.9-3.7,7-6
			c1.6-1.7,2.9-3.5,4.3-5.4c1.4-2,2.6-4.1,3.7-6.2c2-4,3.6-8.2,4.8-12.6c0.7-2.7,1.2-5.4,1.3-8.3c0.1-1.6-0.4-3.2-0.6-4.8
			c-0.1-1.8-0.5-3.6-1.1-5.4c-1.5-4.3-3.8-8.2-7.6-11.3c0.2-0.3,0.5-0.3,0.8-0.3c3.3,0.1,6.6,0.4,9.7,2.3c0.6,0.4,1.3,0.6,1.9,0.8
			c0.4,0.1,0.8,0.2,1,0.6c1.3,1.6,2.6,3.3,3.5,5.1c1.8,3.3,2.5,6.7,3,10.2c1.3,7.9-1.2,14.6-3.9,21.1c-2.7,6.8-6.6,12.9-12,17.7
			c-5.2,4.6-10.8,8.6-17.9,10.7c-6.7,2-13.6,2.9-21.2,1.7C41.1,96.8,40,96.6,39,96.1z"/>
		<path class="st2" d="M80.4,21.5c0.3-3.3,0.8-6.6,2.5-9.4c1.1-1.9,2.7-3.3,5.4-3.2c1.5,0.1,2.8,1,3,2.5c0.3,1.3-0.5,2.3-2,2.4
			c-1.2,0-1.7,0.8-2.1,1.6c-1.1,2.3-1.5,4.9-1.8,7.5c0,0.1,0,0.2-0.1,0.3c-1.3-0.7-2.6-1.1-4-1.3C81.1,21.8,80.7,21.8,80.4,21.5z"/>
		<path class="st3" d="M80.4,21.5c1.4,0.1,2.9,0.4,4.3,1.1c0.3,0.1,0.6,0.2,0.7,0.6c0,1.9,0.1,2,2.1,2.8c1.4,0.6,2.7,1,4.1,1.6
			c0.7,0.3,1.3,0.6,1.8,1.1c0.4,0.4,0.7,0.9,0.5,1.4c-0.1,0.5-0.5,0.5-1,0.6c-0.8,0.1-1.6-0.3-2.5-0.3c-2.9-1-5.6-3-8.7-3.2
			c-1.6-0.1-3.2-0.3-4.7-0.2c-0.5-0.1-1.1-0.1-1.6-0.2c-0.8-0.3-1.6-0.4-2.4-0.9c-0.7-0.4-1.2-0.9-1.1-1.7c0.2-0.7,0.9-0.7,1.6-0.6
			c1.8,0.3,3.6,0.4,5.3,0.2c0.9-0.1,1.5-0.4,1.3-1.4C80.3,22,80.4,21.8,80.4,21.5z"/>
		<path class="st4" d="M75,44.4c0.3,1.7,0.3,3.5,0.3,5.3C75.2,56.6,74.1,63,71.6,69c-1.1,2.7-2.6,5.2-4.5,7.4
			c-0.8,0.9-1.9,1-2.9,0.2c-0.8-0.6-1.4-1.8-0.6-2.8c1.1-1.4,2-2.9,2.9-4.4c1.6-2.8,2.6-5.9,3.4-9c0.8-3.4,1.2-6.9,1.3-10.5
			c0.1-1.9,0-3.8-0.2-5.7c-0.1-1.2,0.6-2,1.6-2C73.7,42.3,74.6,43,75,44.4z"/>
	</g>
	<g>
		<path class="st0" d="M61,3.9c0.3,0.2,0.7,0.3,1,0.5c1,0.6,1.2,1.5,0.6,2.3c-0.9,1-2.1,1.8-3.3,2.5c-4.7,3.1-9.4,6.3-13.5,10.1
			c-6,5.6-10.8,12-13.3,20.1c-1.6,5.4-1.8,11.1-1.2,17.1c0.7,7-1.3,12.9-6.8,16.8c-0.5,0.3-1.1,0.2-1.6,0c-3.1-2.4-5.2-5.5-6.8-8.9
			c-1.3-2.9-1.6-5.7-2.2-8.6c-1-5.1,0.1-9.6,1.4-14.1C16.7,36.2,19,31,22,26.3c3.3-5.2,7.3-9.7,12.5-13.2c2.3-1.5,4.4-3.2,6.9-4.4
			C44.7,7,48.3,5.8,52.1,5c2.5-0.5,5-0.7,7.5-1.1C60.1,3.8,60.5,4,61,3.9z"/>
		<path class="st1" d="M61,3.9c-1.4,0.2-2.9,0.4-4.3,0.5c-5.9,0.6-11.3,2.3-16.2,4.9c-2.1,1.1-3.9,2.5-5.7,3.8c-2.5,1.8-4.9,3.7-7,6
			c-1.6,1.7-2.9,3.5-4.3,5.4c-1.4,2-2.6,4.1-3.7,6.2c-2,4-3.6,8.2-4.8,12.6c-0.7,2.7-1.2,5.4-1.3,8.3c-0.1,1.6,0.4,3.2,0.6,4.8
			c0.1,1.8,0.5,3.6,1.1,5.4c1.5,4.3,3.8,8.2,7.6,11.3c-0.2,0.3-0.5,0.3-0.8,0.3c-3.3-0.1-6.6-0.4-9.7-2.3c-0.6-0.4-1.3-0.6-1.9-0.8
			c-0.4-0.1-0.8-0.2-1-0.6c-1.3-1.6-2.6-3.3-3.5-5.1c-1.8-3.3-2.5-6.7-3-10.2c-1.3-7.9,1.2-14.6,3.9-21.1c2.7-6.8,6.6-12.9,12-17.7
			c5.2-4.6,10.8-8.6,17.9-10.7c6.7-2,13.6-2.9,21.2-1.7C58.9,3.2,60,3.4,61,3.9z"/>
		<path class="st2" d="M19.6,78.5c-0.3,3.3-0.8,6.6-2.5,9.4c-1.1,1.9-2.7,3.3-5.4,3.2c-1.5-0.1-2.8-1-3-2.5c-0.3-1.3,0.5-2.3,2-2.4
			c1.2,0,1.7-0.8,2.1-1.6c1.1-2.3,1.5-4.9,1.8-7.5c0-0.1,0-0.2,0.1-0.3c1.3,0.7,2.6,1.1,4,1.3C18.9,78.2,19.3,78.2,19.6,78.5z"/>
		<path class="st3" d="M19.6,78.5c-1.4-0.1-2.9-0.4-4.3-1.1c-0.3-0.1-0.6-0.2-0.7-0.6c0-1.9-0.1-2-2.1-2.8c-1.4-0.6-2.7-1-4.1-1.6
			c-0.7-0.3-1.3-0.6-1.8-1.1C6.1,70.9,5.9,70.5,6,70c0.1-0.5,0.5-0.5,1-0.6c0.8-0.1,1.6,0.3,2.5,0.3c2.9,1,5.6,3,8.7,3.2
			c1.6,0.1,3.2,0.3,4.7,0.2c0.5,0.1,1.1,0.1,1.6,0.2c0.8,0.3,1.6,0.4,2.4,0.9c0.7,0.4,1.2,0.9,1.1,1.7c-0.2,0.7-0.9,0.7-1.6,0.6
			c-1.8-0.3-3.6-0.4-5.3-0.2c-0.9,0.1-1.5,0.4-1.3,1.4C19.7,78,19.6,78.2,19.6,78.5z"/>
		<path class="st4" d="M25,55.6c-0.3-1.7-0.3-3.5-0.3-5.3c0.1-6.8,1.2-13.3,3.7-19.3c1.1-2.7,2.6-5.2,4.5-7.4c0.8-0.9,1.9-1,2.9-0.2
			c0.8,0.6,1.4,1.8,0.6,2.8c-1.1,1.4-2,2.9-2.9,4.4c-1.6,2.8-2.6,5.9-3.4,9c-0.8,3.4-1.2,6.9-1.3,10.5c-0.1,1.9,0,3.8,0.2,5.7
			c0.1,1.2-0.6,2-1.6,2C26.3,57.7,25.4,57,25,55.6z"/>
	</g>
</g>
</svg>
